<svg xmlns="http://www.w3.org/2000/svg" xmlns:xlink="http://www.w3.org/1999/xlink" width="500" zoomAndPan="magnify" viewBox="0 0 375 374.999991" height="500" preserveAspectRatio="xMidYMid meet" version="1.0"><defs><g/><clipPath id="58eaa5e04b"><path d="M 187.5 0 C 83.945312 0 0 83.945312 0 187.5 C 0 291.054688 83.945312 375 187.5 375 C 291.054688 375 375 291.054688 375 187.5 C 375 83.945312 291.054688 0 187.5 0 Z M 187.5 0 " clip-rule="nonzero"/></clipPath></defs><g clip-path="url(#58eaa5e04b)"><rect x="-37.5" width="450" fill="#ffffff" y="-37.499999" height="449.999989" fill-opacity="1"/></g><g fill="#0cc0df" fill-opacity="1"><g transform="translate(110.21104, 297.422124)"><g><path d="M 22.203125 0 L 22.203125 -215.875 L 60.875 -215.875 L 60.875 -96.0625 L 64.65625 -96.0625 L 109.1875 -154.015625 L 148.4375 -154.015625 L 148.4375 -150.796875 L 96.0625 -83.21875 L 154.296875 -3.484375 L 154.296875 0 L 113.515625 0 L 64.65625 -64.921875 L 60.875 -64.921875 L 60.875 0 Z M 22.203125 0 "/></g></g></g></svg>